<mxfile host="app.diagrams.net" modified="2022-10-14T09:58:26.014Z" agent="5.0 (Macintosh; Intel Mac OS X 10_15_7) AppleWebKit/605.1.15 (KHTML, like Gecko) Version/15.4 Safari/605.1.15" etag="tSxHDz8GRH2CDWtI248D" version="20.4.1" type="github">
  <diagram id="jPKTCcbVmCp2xtXO5GxA" name="Page-1">
    <mxGraphModel dx="1804" dy="1074" grid="0" gridSize="10" guides="1" tooltips="1" connect="1" arrows="1" fold="1" page="0" pageScale="1" pageWidth="827" pageHeight="1169" math="0" shadow="0">
      <root>
        <mxCell id="0" />
        <mxCell id="1" parent="0" />
        <mxCell id="LeR498f9Mb2kC1rFr0TT-1" value="" style="rounded=0;whiteSpace=wrap;html=1;hachureGap=4;" vertex="1" parent="1">
          <mxGeometry x="97" y="2" width="407" height="154" as="geometry" />
        </mxCell>
        <mxCell id="LeR498f9Mb2kC1rFr0TT-2" value="&lt;span style=&quot;caret-color: rgb(90, 98, 117); color: rgb(90, 98, 117); font-family: &amp;quot;Aktiv Grotesk&amp;quot;; font-size: 14px; text-align: left;&quot;&gt;Specific user / scenario / goals&lt;br&gt;&lt;/span&gt;&lt;ul style=&quot;box-sizing: border-box; --tw-shadow: 0 0 transparent; --tw-ring-inset: var(--tw-empty, ); --tw-ring-offset-width: 0px; --tw-ring-offset-color: #fff; --tw-ring-color: rgba(59,130,246,0.5); --tw-ring-offset-shadow: 0 0 transparent; --tw-ring-shadow: 0 0 transparent; color: rgb(90, 98, 117); font-size: 14px; line-height: inherit; margin: 0px; padding: 0px; caret-color: rgb(90, 98, 117); font-family: &amp;quot;Aktiv Grotesk&amp;quot;; text-align: left;&quot;&gt;&lt;li style=&quot;box-sizing: border-box; --tw-shadow: 0 0 transparent; --tw-ring-inset: var(--tw-empty, ); --tw-ring-offset-width: 0px; --tw-ring-offset-color: #fff; --tw-ring-color: rgba(59,130,246,0.5); --tw-ring-offset-shadow: 0 0 transparent; --tw-ring-shadow: 0 0 transparent; counter-reset: list-1 0 list-2 0 list-3 0 list-4 0 list-5 0 list-6 0 list-7 0 list-8 0 list-9 0; list-style-type: none; position: relative; margin-left: calc(var(--tab_width) + var(--bullet_marker_spacing));&quot;&gt;person: student, holiday with friends, frugal&lt;/li&gt;&lt;li style=&quot;box-sizing: border-box; --tw-shadow: 0 0 transparent; --tw-ring-inset: var(--tw-empty, ); --tw-ring-offset-width: 0px; --tw-ring-offset-color: #fff; --tw-ring-color: rgba(59,130,246,0.5); --tw-ring-offset-shadow: 0 0 transparent; --tw-ring-shadow: 0 0 transparent; counter-reset: list-1 0 list-2 0 list-3 0 list-4 0 list-5 0 list-6 0 list-7 0 list-8 0 list-9 0; list-style-type: none; position: relative; margin-left: calc(var(--tab_width) + var(--bullet_marker_spacing));&quot;&gt;scenario: going on a cheap holiday with friends&lt;/li&gt;&lt;li style=&quot;box-sizing: border-box; --tw-shadow: 0 0 transparent; --tw-ring-inset: var(--tw-empty, ); --tw-ring-offset-width: 0px; --tw-ring-offset-color: #fff; --tw-ring-color: rgba(59,130,246,0.5); --tw-ring-offset-shadow: 0 0 transparent; --tw-ring-shadow: 0 0 transparent; counter-reset: list-1 0 list-2 0 list-3 0 list-4 0 list-5 0 list-6 0 list-7 0 list-8 0 list-9 0; list-style-type: none; position: relative; margin-left: calc(var(--tab_width) + var(--bullet_marker_spacing));&quot;&gt;goals: save money + time and find the right destination&lt;/li&gt;&lt;/ul&gt;" style="text;strokeColor=none;fillColor=none;html=1;align=center;verticalAlign=middle;whiteSpace=wrap;rounded=0;hachureGap=4;" vertex="1" parent="1">
          <mxGeometry x="116.5" y="17" width="368" height="124" as="geometry" />
        </mxCell>
        <mxCell id="LeR498f9Mb2kC1rFr0TT-4" value="" style="rounded=0;whiteSpace=wrap;html=1;hachureGap=4;" vertex="1" parent="1">
          <mxGeometry x="-286" y="12" width="160" height="80" as="geometry" />
        </mxCell>
        <mxCell id="LeR498f9Mb2kC1rFr0TT-5" value="&lt;br style=&quot;text-align: left;&quot;&gt;&lt;span style=&quot;text-align: left;&quot;&gt;Phase 1:&amp;nbsp;&lt;/span&gt;&lt;br style=&quot;text-align: left;&quot;&gt;&lt;span style=&quot;text-align: left;&quot;&gt;DEFINE&amp;nbsp;&lt;/span&gt;&lt;br style=&quot;text-align: left;&quot;&gt;&lt;br style=&quot;text-align: left;&quot;&gt;&lt;span style=&quot;text-align: left;&quot;&gt;review current budget&lt;/span&gt;&lt;br style=&quot;text-align: left;&quot;&gt;&lt;span style=&quot;text-align: left;&quot;&gt;what type of holiday? (backpacking, relaxing?)&lt;/span&gt;&lt;br style=&quot;text-align: left;&quot;&gt;&lt;span style=&quot;text-align: left;&quot;&gt;review available destinations&lt;/span&gt;&lt;br style=&quot;text-align: left;&quot;&gt;&lt;span style=&quot;text-align: left;&quot;&gt;review dates&amp;nbsp;&lt;/span&gt;" style="text;strokeColor=none;fillColor=none;html=1;align=center;verticalAlign=middle;whiteSpace=wrap;rounded=0;hachureGap=4;" vertex="1" parent="1">
          <mxGeometry x="-375" y="24" width="347" height="30" as="geometry" />
        </mxCell>
        <mxCell id="LeR498f9Mb2kC1rFr0TT-6" value="" style="rounded=0;whiteSpace=wrap;html=1;hachureGap=4;" vertex="1" parent="1">
          <mxGeometry x="-286" y="118" width="160" height="80" as="geometry" />
        </mxCell>
        <mxCell id="LeR498f9Mb2kC1rFr0TT-7" value="&lt;span style=&quot;text-align: left;&quot;&gt;Phase 2:&amp;nbsp;&lt;/span&gt;&lt;br style=&quot;text-align: left;&quot;&gt;&lt;span style=&quot;text-align: left;&quot;&gt;COMPARE&lt;/span&gt;&lt;br style=&quot;text-align: left;&quot;&gt;&lt;br style=&quot;text-align: left;&quot;&gt;&lt;span style=&quot;text-align: left;&quot;&gt;research destinations on social media + compare them&lt;/span&gt;&lt;br style=&quot;text-align: left;&quot;&gt;&lt;span style=&quot;text-align: left;&quot;&gt;comparing results on different platforms&lt;/span&gt;&lt;br style=&quot;text-align: left;&quot;&gt;&lt;span style=&quot;text-align: left;&quot;&gt;finding the best time to travel (price wise)&lt;/span&gt;" style="text;strokeColor=none;fillColor=none;html=1;align=center;verticalAlign=middle;whiteSpace=wrap;rounded=0;hachureGap=4;" vertex="1" parent="1">
          <mxGeometry x="-322" y="150" width="252" height="30" as="geometry" />
        </mxCell>
        <mxCell id="LeR498f9Mb2kC1rFr0TT-8" value="" style="rounded=0;whiteSpace=wrap;html=1;hachureGap=4;" vertex="1" parent="1">
          <mxGeometry x="-254" y="268" width="160" height="80" as="geometry" />
        </mxCell>
        <mxCell id="LeR498f9Mb2kC1rFr0TT-9" value="&lt;br style=&quot;text-align: left;&quot;&gt;&lt;br style=&quot;text-align: left;&quot;&gt;&lt;span style=&quot;text-align: left;&quot;&gt;Phase 3:&amp;nbsp;&lt;/span&gt;&lt;br style=&quot;text-align: left;&quot;&gt;&lt;span style=&quot;text-align: left;&quot;&gt;DECIDING&lt;/span&gt;&lt;br style=&quot;text-align: left;&quot;&gt;&lt;br style=&quot;text-align: left;&quot;&gt;&lt;span style=&quot;text-align: left;&quot;&gt;word of mouth, recommendations from friends, social media, &amp;nbsp;google reviews?&lt;/span&gt;&lt;br style=&quot;text-align: left;&quot;&gt;&lt;span style=&quot;text-align: left;&quot;&gt;reputation vs price&lt;/span&gt;&lt;br style=&quot;text-align: left;&quot;&gt;&lt;span style=&quot;text-align: left;&quot;&gt;comprehensive packages available or not?&lt;/span&gt;&lt;br style=&quot;text-align: left;&quot;&gt;&lt;span style=&quot;text-align: left;&quot;&gt;concessions - how long will it take to save up for the trip?&lt;/span&gt;&lt;br style=&quot;text-align: left;&quot;&gt;&lt;span style=&quot;text-align: left;&quot;&gt;trustworthiness of the website (does it look strange? customer service?)&lt;/span&gt;&lt;br style=&quot;text-align: left;&quot;&gt;&lt;span style=&quot;text-align: left;&quot;&gt;can we pay in instalments&amp;nbsp;&lt;/span&gt;" style="text;strokeColor=none;fillColor=none;html=1;align=center;verticalAlign=middle;whiteSpace=wrap;rounded=0;hachureGap=4;" vertex="1" parent="1">
          <mxGeometry x="-341" y="305" width="299" height="30" as="geometry" />
        </mxCell>
        <mxCell id="LeR498f9Mb2kC1rFr0TT-12" value="" style="rounded=0;whiteSpace=wrap;html=1;hachureGap=4;" vertex="1" parent="1">
          <mxGeometry x="-288" y="464" width="160" height="80" as="geometry" />
        </mxCell>
        <mxCell id="LeR498f9Mb2kC1rFr0TT-14" value="&lt;span style=&quot;text-align: left;&quot;&gt;Phase 4:&amp;nbsp;&lt;/span&gt;&lt;br style=&quot;text-align: left;&quot;&gt;&lt;span style=&quot;text-align: left;&quot;&gt;SELECTION&lt;/span&gt;&lt;br style=&quot;text-align: left;&quot;&gt;&lt;br style=&quot;text-align: left;&quot;&gt;&lt;span style=&quot;text-align: left;&quot;&gt;&amp;nbsp;the final decision is influenced by feelings accumulated during the first 3 phases&lt;/span&gt;" style="text;strokeColor=none;fillColor=none;html=1;align=center;verticalAlign=middle;whiteSpace=wrap;rounded=0;hachureGap=4;" vertex="1" parent="1">
          <mxGeometry x="-332" y="482" width="228" height="30" as="geometry" />
        </mxCell>
        <mxCell id="LeR498f9Mb2kC1rFr0TT-15" value="" style="rounded=0;whiteSpace=wrap;html=1;hachureGap=4;" vertex="1" parent="1">
          <mxGeometry x="-281.5" y="589" width="160" height="80" as="geometry" />
        </mxCell>
        <mxCell id="LeR498f9Mb2kC1rFr0TT-13" value="&lt;br style=&quot;text-align: left;&quot;&gt;&lt;br style=&quot;text-align: left;&quot;&gt;&lt;br style=&quot;text-align: left;&quot;&gt;&lt;span style=&quot;text-align: left;&quot;&gt;OPPORTUNITIES + PAIN POINTS:&lt;/span&gt;&lt;br style=&quot;text-align: left;&quot;&gt;&lt;br style=&quot;text-align: left;&quot;&gt;&lt;span style=&quot;text-align: left;&quot;&gt;pain point 1: the efficiency of the search, quality of results?&amp;nbsp;&lt;/span&gt;&lt;br style=&quot;text-align: left;&quot;&gt;&lt;span style=&quot;text-align: left;&quot;&gt;pain point 2: limited choices / limited availability of good deals&lt;/span&gt;&lt;br style=&quot;text-align: left;&quot;&gt;&lt;span style=&quot;text-align: left;&quot;&gt;pain point 3: flight frequency -&amp;nbsp;&lt;/span&gt;&lt;br style=&quot;text-align: left;&quot;&gt;&lt;span style=&quot;text-align: left;&quot;&gt;how often and when? (early in the morning? only one flight per week?)&lt;/span&gt;" style="text;strokeColor=none;fillColor=none;html=1;align=center;verticalAlign=middle;whiteSpace=wrap;rounded=0;hachureGap=4;" vertex="1" parent="1">
          <mxGeometry x="-371.5" y="601" width="331" height="30" as="geometry" />
        </mxCell>
        <mxCell id="LeR498f9Mb2kC1rFr0TT-16" value="" style="rounded=0;whiteSpace=wrap;html=1;hachureGap=4;" vertex="1" parent="1">
          <mxGeometry x="-288" y="717" width="160" height="80" as="geometry" />
        </mxCell>
        <mxCell id="LeR498f9Mb2kC1rFr0TT-3" value="&lt;br&gt;DESIGN RECOMMENDATIONS&lt;br&gt;&lt;br&gt;Mobile-friendly, minimalistic and intuitive design&amp;nbsp;&lt;br&gt;		(prioritise mobile for ease)&lt;br&gt;Visually appealing - use of fun images and graphics&amp;nbsp;&lt;br&gt;Functional - easy to search, navigate, compare" style="text;whiteSpace=wrap;html=1;" vertex="1" parent="1">
          <mxGeometry x="-340" y="708" width="298" height="121" as="geometry" />
        </mxCell>
      </root>
    </mxGraphModel>
  </diagram>
</mxfile>
